<svg viewBox="0 0 512 512" xmlns="http://www.w3.org/2000/svg">
  <title>Doceebot logo</title>
  <defs>
    <linearGradient id="bgGrad" x1="0" y1="0" x2="0" y2="1">
      <stop offset="0%" stop-color="#D2AC81" />
      <stop offset="100%" stop-color="#B48A5C" />
    </linearGradient>
    <mask
            id="markCutout"
            x="0"
            y="0"
            width="512"
            height="512"
            maskUnits="userSpaceOnUse"
        >
      <rect x="0" y="0" width="512" height="512" fill="#FFFFFF" />
      <path
                d="M237,265 L265,293 L321,229 M282,274 L301,293 L357,229"
                fill="none"
                stroke="#000000"
                stroke-width="22"
                stroke-linecap="round"
                stroke-linejoin="round"
            />
    </mask>
  </defs>
  <rect
        x="0"
        y="0"
        width="512"
        height="512"
        rx="105"
        ry="105"
        fill="url(#bgGrad)"
    />
  <g
        transform="translate(256 256) scale(1.18) translate(-256 -256)"
        mask="url(#markCutout)"
    >
    <path
            d="M211,125 L257,125 A132,132 0 0 1 257,390 L211,390 Q195,390 195,374 L195,141 Q195,125 211,125 Z"
            fill="#FFFFFF"
        />
    <path d="M220,325 L220,390 L135,390 Z" fill="#FFFFFF" />
  </g>
</svg>
